<svg width="100" height="23" viewBox="0 0 100 23" fill="none" xmlns="http://www.w3.org/2000/svg">
<path d="M38.5 15.8751V19.0001H41.625L50.8417 9.78346L47.7167 6.65846L38.5 15.8751ZM53.2583 7.3668C53.5833 7.0418 53.5833 6.5168 53.2583 6.1918L51.3083 4.2418C50.9833 3.9168 50.4583 3.9168 50.1333 4.2418L48.6083 5.7668L51.7333 8.8918L53.2583 7.3668Z" fill="black"/>
<path d="M67.9997 5.25C63.833 5.25 60.2747 7.84167 58.833 11.5C60.2747 15.1583 63.833 17.75 67.9997 17.75C72.1663 17.75 75.7247 15.1583 77.1663 11.5C75.7247 7.84167 72.1663 5.25 67.9997 5.25ZM67.9997 15.6667C65.6997 15.6667 63.833 13.8 63.833 11.5C63.833 9.2 65.6997 7.33333 67.9997 7.33333C70.2997 7.33333 72.1663 9.2 72.1663 11.5C72.1663 13.8 70.2997 15.6667 67.9997 15.6667ZM67.9997 9C66.6163 9 65.4997 10.1167 65.4997 11.5C65.4997 12.8833 66.6163 14 67.9997 14C69.383 14 70.4997 12.8833 70.4997 11.5C70.4997 10.1167 69.383 9 67.9997 9Z" fill="black"/>
<path d="M93.3337 9V17.3333H86.667V9H93.3337ZM92.0837 4H87.917L87.0837 4.83333H84.167V6.5H95.8337V4.83333H92.917L92.0837 4ZM95.0003 7.33333H85.0003V17.3333C85.0003 18.25 85.7503 19 86.667 19H93.3337C94.2503 19 95.0003 18.25 95.0003 17.3333V7.33333Z" fill="black"/>
</svg>
