<svg width="34" height="34" viewBox="0 0 34 34" fill="none" xmlns="http://www.w3.org/2000/svg">
<rect width="34" height="34" rx="8" fill="#135F76"/>
<path d="M22.4 16.1001C22.4 19.5795 19.5794 22.4001 16.1 22.4001V24.2001C20.5735 24.2001 24.2 20.5736 24.2 16.1001H22.4ZM16.1 22.4001C12.6206 22.4001 9.8 19.5795 9.8 16.1001H8C8 20.5736 11.6265 24.2001 16.1 24.2001V22.4001ZM9.8 16.1001C9.8 12.6206 12.6206 9.80001 16.1 9.80001V8C11.6265 8 8 11.6265 8 16.1001H9.8ZM16.1 9.80001C19.5794 9.80001 22.4 12.6206 22.4 16.1001H24.2C24.2 11.6265 20.5735 8 16.1 8V9.80001Z" fill="white"/>
<path d="M24.4637 25.7368C24.8152 26.0883 25.3851 26.0883 25.7365 25.7368C26.088 25.3854 26.088 24.8155 25.7365 24.464L24.4637 25.7368ZM21.8215 20.549C21.4701 20.1975 20.9002 20.1975 20.5488 20.549C20.1973 20.9005 20.1973 21.4703 20.5488 21.8218L21.8215 20.549ZM25.7365 24.464L21.8215 20.549L20.5488 21.8218L24.4637 25.7368L25.7365 24.464Z" fill="white"/>
</svg>
