<svg width="8" height="14" viewBox="0 0 8 14" fill="none" xmlns="http://www.w3.org/2000/svg">
<path d="M0.292892 12.2929C-0.0976307 12.6834 -0.0976307 13.3166 0.292892 13.7071C0.683416 14.0976 1.31658 14.0976 1.70711 13.7071L0.292892 12.2929ZM7 7L7.70711 7.70711C8.09763 7.31658 8.09763 6.68342 7.70711 6.29289L7 7ZM1.70711 0.292892C1.31658 -0.0976307 0.683416 -0.0976307 0.292892 0.292892C-0.0976307 0.683416 -0.0976307 1.31658 0.292892 1.70711L1.70711 0.292892ZM1.70711 13.7071L7.70711 7.70711L6.29289 6.29289L0.292892 12.2929L1.70711 13.7071ZM7.70711 6.29289L1.70711 0.292892L0.292892 1.70711L6.29289 7.70711L7.70711 6.29289Z" fill="white"/>
</svg>
