<svg width="180" height="180" viewBox="0 0 180 180" fill="none" xmlns="http://www.w3.org/2000/svg">
<path d="M80.8598 156.094C70.4039 156.09 60.098 153.606 50.7886 148.846C41.4793 144.085 33.4321 137.184 27.3084 128.709C21.1846 120.235 17.1589 110.428 15.562 100.094C13.9651 89.7612 14.8426 79.1964 18.1223 69.2682C21.402 59.34 26.9904 50.3316 34.4284 42.983C41.8664 35.6343 50.9418 30.1553 60.9089 26.9958C70.8761 23.8364 81.4506 23.0867 91.7638 24.8085C102.077 26.5302 111.835 30.6742 120.235 36.9001C121.359 37.8135 122.088 39.1257 122.269 40.563C122.45 42.0002 122.069 43.452 121.206 44.6156C120.344 45.7793 119.065 46.5653 117.637 46.8097C116.209 47.0542 114.742 46.7385 113.541 45.9282C103.626 38.5669 91.5178 34.7654 79.1746 35.1383C66.8313 35.5113 54.9747 40.0368 45.5222 47.9832C36.0697 55.9296 29.5739 66.8321 27.0855 78.9277C24.597 91.0233 26.2613 103.605 31.8092 114.637C37.3572 125.669 46.4643 134.508 57.6579 139.723C68.8515 144.938 81.477 146.225 93.4927 143.376C105.508 140.527 116.212 133.708 123.872 124.022C131.532 114.336 135.701 102.349 135.704 90.0001C135.696 87.108 135.461 84.221 135.001 81.3657C134.886 80.6269 134.918 79.8729 135.095 79.1466C135.272 78.4203 135.59 77.736 136.032 77.1328C136.473 76.5295 137.029 76.0191 137.668 75.6306C138.306 75.2421 139.015 74.9832 139.754 74.8688C140.493 74.7543 141.247 74.7864 141.973 74.9632C142.699 75.1401 143.384 75.4585 143.987 75.8997C144.59 76.3411 145.101 76.897 145.489 77.5356C145.877 78.1742 146.136 78.8831 146.251 79.6218C146.753 83.0578 146.989 86.5277 146.954 90.0001C146.939 107.525 139.971 124.327 127.579 136.719C115.187 149.11 98.3844 156.079 80.8598 156.094Z" fill="#135F76" fill-opacity="0.1"/>
<path d="M87.8909 111.094C86.4015 111.087 84.9754 110.491 83.9253 109.434L57.2066 82.7154C56.2851 81.6394 55.8035 80.2552 55.8582 78.8395C55.9129 77.4238 56.4998 76.0809 57.5015 75.0791C58.5033 74.0773 59.8462 73.4905 61.2619 73.4358C62.6776 73.3811 64.0618 73.8626 65.1378 74.7842L87.8909 97.5092L155.644 29.7842C156.72 28.8627 158.104 28.3812 159.52 28.4358C160.936 28.4905 162.279 29.0774 163.28 30.0792C164.282 31.081 164.869 32.4239 164.924 33.8395C164.978 35.2552 164.497 36.6394 163.575 37.7155L91.8566 109.434C90.8065 110.491 89.3804 111.087 87.8909 111.094Z" fill="#0A3B49"/>
</svg>
