<svg width="253" height="20" viewBox="0 0 253 20" fill="none" xmlns="http://www.w3.org/2000/svg">
<g clip-path="url(#clip0_0_2182)">
<path d="M248.589 14.4108C248.914 14.7362 248.914 15.2639 248.589 15.5893C248.263 15.9147 247.736 15.9147 247.41 15.5893L248.589 14.4108ZM243 10.0001L242.41 10.5893C242.085 10.2639 242.085 9.73626 242.41 9.41082L243 10.0001ZM247.41 4.41082C247.736 4.08539 248.263 4.08539 248.589 4.41082C248.914 4.73626 248.914 5.2639 248.589 5.58934L247.41 4.41082ZM247.41 15.5893L242.41 10.5893L243.589 9.41082L248.589 14.4108L247.41 15.5893ZM242.41 9.41082L247.41 4.41082L248.589 5.58934L243.589 10.5893L242.41 9.41082Z" fill="#135F76"/>
<path d="M248.589 14.4108C248.914 14.7362 248.914 15.2639 248.589 15.5893C248.263 15.9147 247.736 15.9147 247.41 15.5893M248.589 14.4108L247.41 15.5893M248.589 14.4108L243.589 9.41082L242.41 10.5893M247.41 15.5893L242.41 10.5893M242.41 10.5893L243 10.0001L242.41 9.41082M242.41 10.5893C242.085 10.2639 242.085 9.73626 242.41 9.41082M242.41 9.41082L247.41 4.41082M242.41 9.41082L243.589 10.5893L248.589 5.58934M247.41 4.41082C247.736 4.08539 248.263 4.08539 248.589 4.41082C248.914 4.73626 248.914 5.2639 248.589 5.58934M247.41 4.41082L248.589 5.58934" stroke="#135F76"/>
<path d="M243.422 14.4108C243.747 14.7362 243.747 15.2639 243.422 15.5893C243.097 15.9147 242.569 15.9147 242.243 15.5893L243.422 14.4108ZM237.833 10.0001L237.243 10.5893C236.918 10.2639 236.918 9.73626 237.243 9.41082L237.833 10.0001ZM242.243 4.41082C242.569 4.08539 243.097 4.08539 243.422 4.41082C243.747 4.73626 243.747 5.2639 243.422 5.58934L242.243 4.41082ZM242.243 15.5893L237.243 10.5893L238.422 9.41082L243.422 14.4108L242.243 15.5893ZM237.243 9.41082L242.243 4.41082L243.422 5.58934L238.422 10.5893L237.243 9.41082Z" fill="#135F76"/>
<path d="M243.422 14.4108C243.747 14.7362 243.747 15.2639 243.422 15.5893C243.097 15.9147 242.569 15.9147 242.243 15.5893M243.422 14.4108L242.243 15.5893M243.422 14.4108L238.422 9.41082L237.243 10.5893M242.243 15.5893L237.243 10.5893M237.243 10.5893L237.833 10.0001L237.243 9.41082M237.243 10.5893C236.918 10.2639 236.918 9.73626 237.243 9.41082M237.243 9.41082L242.243 4.41082M237.243 9.41082L238.422 10.5893L243.422 5.58934M242.243 4.41082C242.569 4.08539 243.097 4.08539 243.422 4.41082C243.747 4.73626 243.747 5.2639 243.422 5.58934M242.243 4.41082L243.422 5.58934" stroke="#135F76"/>
</g>
<defs>
<clipPath id="clip0_0_2182">
<rect width="253" height="20" fill="white"/>
</clipPath>
</defs>
</svg>
