<svg width="100" height="23" viewBox="0 0 100 23" fill="none" xmlns="http://www.w3.org/2000/svg">
<path d="M60.5 15.8751V19.0001H63.625L72.8417 9.78346L69.7167 6.65846L60.5 15.8751ZM75.2583 7.3668C75.5833 7.0418 75.5833 6.5168 75.2583 6.1918L73.3083 4.2418C72.9833 3.9168 72.4583 3.9168 72.1333 4.2418L70.6083 5.7668L73.7333 8.8918L75.2583 7.3668Z" fill="black"/>
<path d="M89.9997 5.25C85.833 5.25 82.2747 7.84167 80.833 11.5C82.2747 15.1583 85.833 17.75 89.9997 17.75C94.1663 17.75 97.7247 15.1583 99.1663 11.5C97.7247 7.84167 94.1663 5.25 89.9997 5.25ZM89.9997 15.6667C87.6997 15.6667 85.833 13.8 85.833 11.5C85.833 9.2 87.6997 7.33333 89.9997 7.33333C92.2997 7.33333 94.1663 9.2 94.1663 11.5C94.1663 13.8 92.2997 15.6667 89.9997 15.6667ZM89.9997 9C88.6163 9 87.4997 10.1167 87.4997 11.5C87.4997 12.8833 88.6163 14 89.9997 14C91.383 14 92.4997 12.8833 92.4997 11.5C92.4997 10.1167 91.383 9 89.9997 9Z" fill="black"/>
</svg>
