<svg width="88" height="88" viewBox="0 0 88 88" fill="none" xmlns="http://www.w3.org/2000/svg">
<path d="M86.0474 2.01895C83.4444 -0.583993 79.2397 -0.583993 76.6367 2.01895L43.9998 34.5892L11.3629 1.95221C8.75992 -0.650736 4.55516 -0.650736 1.95221 1.95221C-0.650736 4.55516 -0.650736 8.75992 1.95221 11.3629L34.5892 43.9998L1.95221 76.6367C-0.650736 79.2397 -0.650736 83.4444 1.95221 86.0474C4.55516 88.6503 8.75992 88.6503 11.3629 86.0474L43.9998 53.4104L76.6367 86.0474C79.2397 88.6503 83.4444 88.6503 86.0474 86.0474C88.6503 83.4444 88.6503 79.2397 86.0474 76.6367L53.4104 43.9998L86.0474 11.3629C88.5836 8.82666 88.5836 4.55516 86.0474 2.01895Z" fill="#E04343"/>
</svg>
