<svg width="18" height="18" viewBox="0 0 18 18" fill="none" xmlns="http://www.w3.org/2000/svg">
<g clip-path="url(#clip0_105_828)">
<path d="M9.44875 7.73999C8.84494 5.99249 7.21021 4.73999 5.2883 4.73999C2.85094 4.73999 0.870117 6.75749 0.870117 9.23999C0.870117 11.7225 2.85094 13.74 5.2883 13.74C7.21021 13.74 8.84494 12.4875 9.44875 10.74H12.6519V13.74H15.5974V10.74H17.0701V7.73999H9.44875ZM5.2883 10.74C4.4783 10.74 3.81557 10.065 3.81557 9.23999C3.81557 8.41499 4.4783 7.73999 5.2883 7.73999C6.0983 7.73999 6.76103 8.41499 6.76103 9.23999C6.76103 10.065 6.0983 10.74 5.2883 10.74Z" fill="black"/>
</g>
<defs>
<clipPath id="clip0_105_828">
<rect width="18" height="18" fill="white"/>
</clipPath>
</defs>
</svg>
