<svg width="24" height="20" viewBox="0 0 24 20" fill="none" xmlns="http://www.w3.org/2000/svg">
<path d="M16.9997 7.6415C16.8123 7.48629 16.5589 7.39917 16.2947 7.39917C16.0305 7.39917 15.7771 7.48629 15.5897 7.6415L11.9997 10.5915L8.45971 7.6415C8.27235 7.48629 8.01889 7.39917 7.75471 7.39917C7.49052 7.39917 7.23707 7.48629 7.0497 7.6415C6.95598 7.71897 6.88158 7.81113 6.83081 7.91268C6.78004 8.01423 6.75391 8.12315 6.75391 8.23316C6.75391 8.34317 6.78004 8.4521 6.83081 8.55365C6.88158 8.65519 6.95598 8.74736 7.0497 8.82483L11.2897 12.3582C11.3827 12.4363 11.4933 12.4983 11.6151 12.5406C11.737 12.5829 11.8677 12.6047 11.9997 12.6047C12.1317 12.6047 12.2624 12.5829 12.3843 12.5406C12.5061 12.4983 12.6167 12.4363 12.7097 12.3582L16.9997 8.82483C17.0934 8.74736 17.1678 8.65519 17.2186 8.55365C17.2694 8.4521 17.2955 8.34317 17.2955 8.23316C17.2955 8.12315 17.2694 8.01423 17.2186 7.91268C17.1678 7.81113 17.0934 7.71897 16.9997 7.6415Z" fill="#0A033C"/>
</svg>
