<svg width="18" height="18" viewBox="0 0 18 18" fill="none" xmlns="http://www.w3.org/2000/svg">
<path d="M16.4402 8.69994C14.9252 5.18244 12.0752 2.99994 9.00017 2.99994C5.92517 2.99994 3.07517 5.18244 1.56017 8.69994C1.51887 8.79456 1.49756 8.8967 1.49756 8.99994C1.49756 9.10318 1.51887 9.20531 1.56017 9.29994C3.07517 12.8174 5.92517 14.9999 9.00017 14.9999C12.0752 14.9999 14.9252 12.8174 16.4402 9.29994C16.4815 9.20531 16.5028 9.10318 16.5028 8.99994C16.5028 8.8967 16.4815 8.79456 16.4402 8.69994ZM9.00017 13.4999C6.62267 13.4999 4.37267 11.7824 3.07517 8.99994C4.37267 6.21744 6.62267 4.49994 9.00017 4.49994C11.3777 4.49994 13.6277 6.21744 14.9252 8.99994C13.6277 11.7824 11.3777 13.4999 9.00017 13.4999ZM9.00017 5.99994C8.40683 5.99994 7.82681 6.17589 7.33346 6.50553C6.84012 6.83518 6.4556 7.30371 6.22854 7.85189C6.00147 8.40007 5.94206 9.00327 6.05782 9.58521C6.17357 10.1671 6.4593 10.7017 6.87885 11.1213C7.29841 11.5408 7.83296 11.8265 8.4149 11.9423C8.99685 12.058 9.60005 11.9986 10.1482 11.7716C10.6964 11.5445 11.1649 11.16 11.4946 10.6666C11.8243 10.1733 12.0002 9.59328 12.0002 8.99994C12.0002 8.20429 11.6841 7.44123 11.1215 6.87862C10.5589 6.31601 9.79582 5.99994 9.00017 5.99994ZM9.00017 10.4999C8.7035 10.4999 8.41349 10.412 8.16682 10.2471C7.92015 10.0823 7.72789 9.84805 7.61435 9.57396C7.50082 9.29988 7.47112 8.99828 7.529 8.7073C7.58687 8.41633 7.72974 8.14906 7.93951 7.93928C8.14929 7.7295 8.41657 7.58664 8.70754 7.52876C8.99851 7.47088 9.30011 7.50059 9.5742 7.61412C9.84829 7.72765 10.0826 7.91991 10.2474 8.16658C10.4122 8.41326 10.5002 8.70327 10.5002 8.99994C10.5002 9.39776 10.3421 9.77929 10.0608 10.0606C9.77953 10.3419 9.398 10.4999 9.00017 10.4999Z" fill="#5D5A6F"/>
</svg>
