<svg width="50" height="23" viewBox="0 0 50 23" fill="none" xmlns="http://www.w3.org/2000/svg">
<path d="M22.542 0.833374H27.4572V6.16671H22.542V0.833374Z" fill="black"/>
<path d="M15.1699 16.8333H20.0851V22.1666H15.1699V16.8333Z" fill="black"/>
<path d="M15.1699 8.83331H20.0851V14.1666H15.1699V8.83331Z" fill="black"/>
<path d="M15.1699 0.833374H20.0851V6.16671H15.1699V0.833374Z" fill="black"/>
<path d="M27.4572 12.06V8.83331H22.542V14.1666H25.5157L27.4572 12.06Z" fill="black"/>
<path d="M35.9105 10.5533L34.4728 8.99331C34.2762 8.77998 33.9567 8.77998 33.7601 8.99331L32.6787 10.1666L34.8291 12.5L35.9105 11.3266C36.1071 11.1133 36.1071 10.7666 35.9105 10.5533Z" fill="black"/>
<path d="M23.7705 19.8333V22.1666H25.9209L34.117 13.2733L31.9666 10.9399L23.7705 19.8333Z" fill="black"/>
<path d="M29.9141 0.833374H34.8293V6.16671H29.9141V0.833374Z" fill="black"/>
</svg>
